<svg width="35" height="35" viewBox="0 0 35 35" fill="none" xmlns="http://www.w3.org/2000/svg">
<path d="M3.28125 30.625H31.7188M5.46875 4.375V30.625M20.7813 4.375V30.625M29.5313 10.9375V30.625M9.84375 9.84375H10.9375M9.84375 14.2188H10.9375M9.84375 18.5938H10.9375M15.3125 9.84375H16.4063M15.3125 14.2188H16.4063M15.3125 18.5938H16.4063M9.84375 30.625V25.7031C9.84375 24.7975 10.5788 24.0625 11.4844 24.0625H14.7656C15.6713 24.0625 16.4063 24.7975 16.4063 25.7031V30.625M4.375 4.375H21.875M20.7813 10.9375H30.625M25.1563 16.4063H25.1679V16.4179H25.1563V16.4063ZM25.1563 20.7813H25.1679V20.7929H25.1563V20.7813ZM25.1563 25.1563H25.1679V25.1679H25.1563V25.1563Z" stroke="black" stroke-width="2.1875" stroke-linecap="round" stroke-linejoin="round"/>
</svg>
