<svg width="53" height="53" viewBox="0 0 53 53" fill="none" xmlns="http://www.w3.org/2000/svg">
<path d="M31.4687 17.1278C29.9701 16.5995 28.3666 16.4383 26.7928 16.6577C25.219 16.877 23.7207 17.4706 22.4237 18.3887C21.1266 19.3067 20.0686 20.5224 19.3385 21.9337C18.6083 23.3451 18.2273 24.911 18.2273 26.5C18.2273 28.089 18.6083 29.6549 19.3385 31.0663C20.0686 32.4776 21.1266 33.6933 22.4237 34.6113C23.7207 35.5294 25.219 36.123 26.7928 36.3423C28.3666 36.5617 29.9701 36.4005 31.4687 35.8722M16.5625 23.1875H28.1562M16.5625 29.8125H28.1562M46.375 26.5C46.375 29.11 45.8609 31.6945 44.8621 34.1058C43.8633 36.5172 42.3993 38.7082 40.5537 40.5537C38.7082 42.3993 36.5172 43.8633 34.1058 44.8621C31.6945 45.8609 29.11 46.375 26.5 46.375C23.89 46.375 21.3055 45.8609 18.8942 44.8621C16.4828 43.8633 14.2918 42.3993 12.4463 40.5537C10.6007 38.7082 9.13671 36.5172 8.13789 34.1058C7.13908 31.6945 6.625 29.11 6.625 26.5C6.625 21.2288 8.71897 16.1735 12.4463 12.4463C16.1735 8.71897 21.2288 6.625 26.5 6.625C31.7712 6.625 36.8265 8.71897 40.5537 12.4463C44.281 16.1735 46.375 21.2288 46.375 26.5Z" stroke="#1E295A" stroke-width="3.3125" stroke-linecap="round" stroke-linejoin="round"/>
</svg>
