<svg width="53" height="53" viewBox="0 0 53 53" fill="none" xmlns="http://www.w3.org/2000/svg">
<path d="M37.6722 34.2755C38.7052 33.5701 39.9169 33.1715 41.167 33.126C42.4171 33.0804 43.6546 33.3897 44.7362 34.0181C45.8179 34.6465 46.6995 35.5683 47.2791 36.6768C47.8588 37.7854 48.1127 39.0354 48.0116 40.2822C45.362 41.2082 42.5477 41.5686 39.7502 41.34C39.7416 38.8371 39.0208 36.3862 37.6722 34.2777C36.475 32.4002 34.8237 30.8549 32.8709 29.7849C30.9181 28.7149 28.7269 28.1547 26.5002 28.1562C24.2738 28.1551 22.0832 28.7154 20.1308 29.7854C18.1784 30.8554 16.5274 32.4005 15.3305 34.2777M39.748 41.3378L39.7502 41.4062C39.7502 41.9031 39.7237 42.3934 39.6685 42.877C35.6612 45.1761 31.1202 46.3824 26.5002 46.375C21.7081 46.375 17.2097 45.103 13.3319 42.877C13.2751 42.3659 13.2479 41.852 13.2502 41.3378M13.2502 41.3378C10.4536 41.5747 7.64083 41.2156 4.99324 40.2844C4.89243 39.0379 5.14649 37.7884 5.72603 36.6802C6.30557 35.572 7.18693 34.6505 8.26821 34.0222C9.34948 33.3939 10.5865 33.0845 11.8362 33.1297C13.086 33.1749 14.2974 33.5729 15.3305 34.2777M13.2502 41.3378C13.2581 38.8351 13.9825 36.3864 15.3305 34.2777M33.1252 14.9062C33.1252 16.6633 32.4272 18.3484 31.1848 19.5908C29.9424 20.8333 28.2573 21.5312 26.5002 21.5312C24.7431 21.5312 23.058 20.8333 21.8156 19.5908C20.5732 18.3484 19.8752 16.6633 19.8752 14.9062C19.8752 13.1492 20.5732 11.4641 21.8156 10.2217C23.058 8.97924 24.7431 8.28125 26.5002 8.28125C28.2573 8.28125 29.9424 8.97924 31.1848 10.2217C32.4272 11.4641 33.1252 13.1492 33.1252 14.9062ZM46.3752 21.5312C46.3752 22.1838 46.2467 22.8299 45.997 23.4327C45.7473 24.0355 45.3813 24.5833 44.9199 25.0447C44.4585 25.5061 43.9107 25.8721 43.3079 26.1218C42.7051 26.3715 42.059 26.5 41.4064 26.5C40.7539 26.5 40.1078 26.3715 39.505 26.1218C38.9022 25.8721 38.3544 25.5061 37.893 25.0447C37.4316 24.5833 37.0656 24.0355 36.8159 23.4327C36.5662 22.8299 36.4377 22.1838 36.4377 21.5312C36.4377 20.2135 36.9612 18.9496 37.893 18.0178C38.8248 17.086 40.0887 16.5625 41.4064 16.5625C42.7242 16.5625 43.9881 17.086 44.9199 18.0178C45.8517 18.9496 46.3752 20.2135 46.3752 21.5312ZM16.5627 21.5312C16.5627 22.1838 16.4342 22.8299 16.1845 23.4327C15.9348 24.0355 15.5688 24.5833 15.1074 25.0447C14.646 25.5061 14.0982 25.8721 13.4954 26.1218C12.8926 26.3715 12.2465 26.5 11.594 26.5C10.9414 26.5 10.2953 26.3715 9.69249 26.1218C9.08966 25.8721 8.54191 25.5061 8.08051 25.0447C7.61912 24.5833 7.25313 24.0355 7.00342 23.4327C6.75372 22.8299 6.6252 22.1838 6.6252 21.5312C6.6252 20.2135 7.14869 18.9496 8.08051 18.0178C9.01234 17.086 10.2762 16.5625 11.594 16.5625C12.9117 16.5625 14.1756 17.086 15.1074 18.0178C16.0392 18.9496 16.5627 20.2135 16.5627 21.5312Z" stroke="#1E295A" stroke-width="3.3125" stroke-linecap="round" stroke-linejoin="round"/>
</svg>
